<?xml version="1.0" encoding="utf-8"?>
<!-- Generator: Adobe Illustrator 23.0.3, SVG Export Plug-In . SVG Version: 6.00 Build 0)  -->
<svg version="1.1" id="Layer_1" xmlns="http://www.w3.org/2000/svg" xmlns:xlink="http://www.w3.org/1999/xlink" x="0px" y="0px"
	 viewBox="0 0 110 49" style="enable-background:new 0 0 110 49;" xml:space="preserve">
<style type="text/css">
	.st0{fill:#EE724B;}
	.st1{fill:#2A2A69;}
</style>
<g>
	<polyline class="st0" points="0.09,4.8 0.09,16.51 10.23,22.36 20.37,16.51 20.37,4.8 	"/>
	<polyline class="st0" points="22.49,4.8 22.49,16.51 32.63,22.36 42.77,16.51 42.77,4.8 	"/>
	<polyline class="st0" points="67.06,4.8 67.06,16.51 77.2,22.36 87.34,16.51 87.34,4.8 	"/>
	<polyline class="st0" points="44.89,4.8 44.89,16.51 55.03,22.36 65.17,16.51 65.17,4.8 	"/>
	<polyline class="st0" points="89.46,4.8 89.46,16.51 99.6,22.36 109.74,16.51 109.74,4.8 	"/>
	<polyline class="st0" points="-0.92,42.34 9.21,36.48 9.21,24.78 -0.92,18.92 	"/>
	<polyline class="st0" points="20.37,44.22 10.23,38.37 0.09,44.22 	"/>
	<polyline class="st0" points="42.77,44.22 32.63,38.37 22.49,44.22 	"/>
	<polygon class="st0" points="33.65,24.86 33.65,36.57 43.79,42.42 53.93,36.57 53.93,24.86 43.79,19.01 	"/>
	<polygon class="st0" points="11.48,24.86 11.48,36.57 21.62,42.42 31.76,36.57 31.76,24.86 21.62,19.01 	"/>
	<polygon class="st0" points="55.9,24.78 55.9,36.48 66.04,42.34 76.18,36.48 76.18,24.78 66.04,18.92 	"/>
	<polyline class="st0" points="87.34,44.22 77.2,38.37 67.06,44.22 	"/>
	<polyline class="st0" points="65.17,44.22 55.03,38.37 44.89,44.22 	"/>
	<polyline class="st0" points="109.74,44.22 99.6,38.37 89.46,44.22 	"/>
	<polyline class="st0" points="110.75,19.01 100.61,24.86 100.61,36.57 110.75,42.42 	"/>
	<polygon class="st0" points="78.44,24.86 78.44,36.57 88.58,42.42 98.72,36.57 98.72,24.86 88.58,19.01 	"/>
</g>
<rect x="51.87" y="-51.91" transform="matrix(6.123234e-17 -1 1 6.123234e-17 52.0038 57.8252)" class="st1" width="6.1" height="109.64"/>
<rect x="51.87" y="-8.86" transform="matrix(6.123234e-17 -1 1 6.123234e-17 8.9507 100.8783)" class="st1" width="6.1" height="109.64"/>
</svg>
