<?xml version="1.0" encoding="utf-8"?>
<!-- Generator: Adobe Illustrator 23.0.3, SVG Export Plug-In . SVG Version: 6.00 Build 0)  -->
<svg version="1.1" id="Layer_1" xmlns="http://www.w3.org/2000/svg" xmlns:xlink="http://www.w3.org/1999/xlink" x="0px" y="0px"
	 viewBox="0 0 110 50" style="enable-background:new 0 0 110 50;" xml:space="preserve">
<style type="text/css">
	.st0{fill:#EE724B;}
	.st1{fill:#F4F6F6;}
</style>
<g>
	<polygon class="st0" points="0.56,12.16 0.56,14.33 2.44,15.42 4.32,14.33 4.32,12.16 2.44,11.08 	"/>
	<polygon class="st0" points="2.63,15.77 2.63,17.94 4.51,19.02 6.39,17.94 6.39,15.77 4.51,14.68 	"/>
	<polyline class="st0" points="0.4,19.02 2.28,17.94 2.28,15.77 0.4,14.68 	"/>
	<polygon class="st0" points="2.63,8.57 2.63,10.74 4.51,11.83 6.39,10.74 6.39,8.57 4.51,7.49 	"/>
	<polyline class="st0" points="0.4,11.83 2.28,10.74 2.28,8.57 0.4,7.49 	"/>
	<polygon class="st0" points="6.78,15.77 6.78,17.94 8.66,19.02 10.54,17.94 10.54,15.77 8.66,14.68 	"/>
	<polygon class="st0" points="6.78,8.57 6.78,10.74 8.66,11.83 10.54,10.74 10.54,8.57 8.66,7.49 	"/>
	<polygon class="st0" points="8.85,12.18 8.85,14.35 10.73,15.43 12.61,14.35 12.61,12.18 10.73,11.09 	"/>
	<polygon class="st0" points="4.74,12.18 4.74,14.35 6.62,15.43 8.5,14.35 8.5,12.18 6.62,11.09 	"/>
	<polygon class="st0" points="12.98,12.16 12.98,14.33 14.86,15.42 16.73,14.33 16.73,12.16 14.86,11.08 	"/>
	<polygon class="st0" points="15.04,15.77 15.04,17.94 16.92,19.02 18.8,17.94 18.8,15.77 16.92,14.68 	"/>
	<polygon class="st0" points="10.93,15.77 10.93,17.94 12.81,19.02 14.69,17.94 14.69,15.77 12.81,14.68 	"/>
	<polygon class="st0" points="15.04,8.57 15.04,10.74 16.92,11.83 18.8,10.74 18.8,8.57 16.92,7.49 	"/>
	<polygon class="st0" points="10.93,8.57 10.93,10.74 12.81,11.83 14.69,10.74 14.69,8.57 12.81,7.49 	"/>
	<polygon class="st0" points="19.2,15.77 19.2,17.94 21.08,19.02 22.96,17.94 22.96,15.77 21.08,14.68 	"/>
	<polygon class="st0" points="19.2,8.57 19.2,10.74 21.08,11.83 22.96,10.74 22.96,8.57 21.08,7.49 	"/>
	<polygon class="st0" points="21.26,12.18 21.26,14.35 23.14,15.43 25.02,14.35 25.02,12.18 23.14,11.09 	"/>
	<polygon class="st0" points="17.15,12.18 17.15,14.35 19.03,15.43 20.91,14.35 20.91,12.18 19.03,11.09 	"/>
	<polygon class="st0" points="25.39,12.16 25.39,14.33 27.27,15.42 29.15,14.33 29.15,12.16 27.27,11.08 	"/>
	<polygon class="st0" points="27.46,15.77 27.46,17.94 29.34,19.02 31.22,17.94 31.22,15.77 29.34,14.68 	"/>
	<polygon class="st0" points="23.35,15.77 23.35,17.94 25.23,19.02 27.11,17.94 27.11,15.77 25.23,14.68 	"/>
	<polygon class="st0" points="27.46,8.57 27.46,10.74 29.34,11.83 31.22,10.74 31.22,8.57 29.34,7.49 	"/>
	<polygon class="st0" points="23.35,8.57 23.35,10.74 25.23,11.83 27.11,10.74 27.11,8.57 25.23,7.49 	"/>
	<polygon class="st0" points="31.61,15.77 31.61,17.94 33.49,19.02 35.37,17.94 35.37,15.77 33.49,14.68 	"/>
	<polygon class="st0" points="31.61,8.57 31.61,10.74 33.49,11.83 35.37,10.74 35.37,8.57 33.49,7.49 	"/>
	<polygon class="st0" points="33.68,12.18 33.68,14.35 35.56,15.43 37.44,14.35 37.44,12.18 35.56,11.09 	"/>
	<polygon class="st0" points="29.57,12.18 29.57,14.35 31.45,15.43 33.33,14.35 33.33,12.18 31.45,11.09 	"/>
	<polygon class="st0" points="37.8,12.16 37.8,14.33 39.68,15.42 41.56,14.33 41.56,12.16 39.68,11.08 	"/>
	<polygon class="st0" points="39.87,15.77 39.87,17.94 41.75,19.02 43.63,17.94 43.63,15.77 41.75,14.68 	"/>
	<polygon class="st0" points="35.76,15.77 35.76,17.94 37.64,19.02 39.52,17.94 39.52,15.77 37.64,14.68 	"/>
	<polygon class="st0" points="39.87,8.57 39.87,10.74 41.75,11.83 43.63,10.74 43.63,8.57 41.75,7.49 	"/>
	<polygon class="st0" points="35.76,8.57 35.76,10.74 37.64,11.83 39.52,10.74 39.52,8.57 37.64,7.49 	"/>
	<polygon class="st0" points="44.02,15.77 44.02,17.94 45.9,19.02 47.78,17.94 47.78,15.77 45.9,14.68 	"/>
	<polygon class="st0" points="44.02,8.57 44.02,10.74 45.9,11.83 47.78,10.74 47.78,8.57 45.9,7.49 	"/>
	<polygon class="st0" points="46.09,12.18 46.09,14.35 47.97,15.43 49.85,14.35 49.85,12.18 47.97,11.09 	"/>
	<polygon class="st0" points="41.98,12.18 41.98,14.35 43.86,15.43 45.74,14.35 45.74,12.18 43.86,11.09 	"/>
	<polygon class="st0" points="0.56,26.63 0.56,28.8 2.44,29.89 4.32,28.8 4.32,26.63 2.44,25.55 	"/>
	<polygon class="st0" points="2.63,30.24 2.63,32.41 4.51,33.49 6.39,32.41 6.39,30.24 4.51,29.15 	"/>
	<polyline class="st0" points="0.4,33.49 2.28,32.41 2.28,30.24 0.4,29.15 	"/>
	<polygon class="st0" points="0.56,19.44 0.56,21.61 2.44,22.69 4.32,21.61 4.32,19.44 2.44,18.35 	"/>
	<polygon class="st0" points="2.63,23.04 2.63,25.21 4.51,26.3 6.39,25.21 6.39,23.04 4.51,21.96 	"/>
	<polyline class="st0" points="0.4,26.3 2.28,25.21 2.28,23.04 0.4,21.96 	"/>
	<polygon class="st0" points="6.78,30.24 6.78,32.41 8.66,33.49 10.54,32.41 10.54,30.24 8.66,29.15 	"/>
	<polygon class="st0" points="6.78,23.04 6.78,25.21 8.66,26.3 10.54,25.21 10.54,23.04 8.66,21.96 	"/>
	<polygon class="st0" points="8.85,26.65 8.85,28.82 10.73,29.9 12.61,28.82 12.61,26.65 10.73,25.56 	"/>
	<polygon class="st0" points="4.74,26.65 4.74,28.82 6.62,29.9 8.5,28.82 8.5,26.65 6.62,25.56 	"/>
	<polygon class="st0" points="8.85,19.45 8.85,21.62 10.73,22.71 12.61,21.62 12.61,19.45 10.73,18.37 	"/>
	<polygon class="st0" points="4.74,19.45 4.74,21.62 6.62,22.71 8.5,21.62 8.5,19.45 6.62,18.37 	"/>
	<polygon class="st0" points="12.98,26.63 12.98,28.8 14.86,29.89 16.73,28.8 16.73,26.63 14.86,25.55 	"/>
	<polygon class="st0" points="15.04,30.24 15.04,32.41 16.92,33.49 18.8,32.41 18.8,30.24 16.92,29.15 	"/>
	<polygon class="st0" points="10.93,30.24 10.93,32.41 12.81,33.49 14.69,32.41 14.69,30.24 12.81,29.15 	"/>
	<polygon class="st0" points="12.98,19.44 12.98,21.61 14.86,22.69 16.73,21.61 16.73,19.44 14.86,18.35 	"/>
	<polygon class="st0" points="15.04,23.04 15.04,25.21 16.92,26.3 18.8,25.21 18.8,23.04 16.92,21.96 	"/>
	<polygon class="st0" points="10.93,23.04 10.93,25.21 12.81,26.3 14.69,25.21 14.69,23.04 12.81,21.96 	"/>
	<polygon class="st0" points="19.2,30.24 19.2,32.41 21.08,33.49 22.96,32.41 22.96,30.24 21.08,29.15 	"/>
	<polygon class="st0" points="19.2,23.04 19.2,25.21 21.08,26.3 22.96,25.21 22.96,23.04 21.08,21.96 	"/>
	<polygon class="st0" points="21.26,26.65 21.26,28.82 23.14,29.9 25.02,28.82 25.02,26.65 23.14,25.56 	"/>
	<polygon class="st0" points="17.15,26.65 17.15,28.82 19.03,29.9 20.91,28.82 20.91,26.65 19.03,25.56 	"/>
	<polygon class="st0" points="21.26,19.45 21.26,21.62 23.14,22.71 25.02,21.62 25.02,19.45 23.14,18.37 	"/>
	<polygon class="st0" points="17.15,19.45 17.15,21.62 19.03,22.71 20.91,21.62 20.91,19.45 19.03,18.37 	"/>
	<polygon class="st0" points="25.39,26.63 25.39,28.8 27.27,29.89 29.15,28.8 29.15,26.63 27.27,25.55 	"/>
	<polygon class="st0" points="27.46,30.24 27.46,32.41 29.34,33.49 31.22,32.41 31.22,30.24 29.34,29.15 	"/>
	<polygon class="st0" points="23.35,30.24 23.35,32.41 25.23,33.49 27.11,32.41 27.11,30.24 25.23,29.15 	"/>
	<polygon class="st0" points="25.39,19.44 25.39,21.61 27.27,22.69 29.15,21.61 29.15,19.44 27.27,18.35 	"/>
	<polygon class="st0" points="27.46,23.04 27.46,25.21 29.34,26.3 31.22,25.21 31.22,23.04 29.34,21.96 	"/>
	<polygon class="st0" points="23.35,23.04 23.35,25.21 25.23,26.3 27.11,25.21 27.11,23.04 25.23,21.96 	"/>
	<polygon class="st0" points="31.61,30.24 31.61,32.41 33.49,33.49 35.37,32.41 35.37,30.24 33.49,29.15 	"/>
	<polygon class="st0" points="31.61,23.04 31.61,25.21 33.49,26.3 35.37,25.21 35.37,23.04 33.49,21.96 	"/>
	<polygon class="st0" points="33.68,26.65 33.68,28.82 35.56,29.9 37.44,28.82 37.44,26.65 35.56,25.56 	"/>
	<polygon class="st0" points="29.57,26.65 29.57,28.82 31.45,29.9 33.33,28.82 33.33,26.65 31.45,25.56 	"/>
	<polygon class="st0" points="33.68,19.45 33.68,21.62 35.56,22.71 37.44,21.62 37.44,19.45 35.56,18.37 	"/>
	<polygon class="st0" points="29.57,19.45 29.57,21.62 31.45,22.71 33.33,21.62 33.33,19.45 31.45,18.37 	"/>
	<polygon class="st0" points="37.8,26.63 37.8,28.8 39.68,29.89 41.56,28.8 41.56,26.63 39.68,25.55 	"/>
	<polygon class="st0" points="39.87,30.24 39.87,32.41 41.75,33.49 43.63,32.41 43.63,30.24 41.75,29.15 	"/>
	<polygon class="st0" points="35.76,30.24 35.76,32.41 37.64,33.49 39.52,32.41 39.52,30.24 37.64,29.15 	"/>
	<polygon class="st0" points="37.8,19.44 37.8,21.61 39.68,22.69 41.56,21.61 41.56,19.44 39.68,18.35 	"/>
	<polygon class="st0" points="39.87,23.04 39.87,25.21 41.75,26.3 43.63,25.21 43.63,23.04 41.75,21.96 	"/>
	<polygon class="st0" points="35.76,23.04 35.76,25.21 37.64,26.3 39.52,25.21 39.52,23.04 37.64,21.96 	"/>
	<polygon class="st0" points="44.02,30.24 44.02,32.41 45.9,33.49 47.78,32.41 47.78,30.24 45.9,29.15 	"/>
	<polygon class="st0" points="44.02,23.04 44.02,25.21 45.9,26.3 47.78,25.21 47.78,23.04 45.9,21.96 	"/>
	<polygon class="st0" points="46.09,26.65 46.09,28.82 47.97,29.9 49.85,28.82 49.85,26.65 47.97,25.56 	"/>
	<polygon class="st0" points="41.98,26.65 41.98,28.82 43.86,29.9 45.74,28.82 45.74,26.65 43.86,25.56 	"/>
	<polygon class="st0" points="0.56,33.94 0.56,36.11 2.44,37.19 4.32,36.11 4.32,33.94 2.44,32.85 	"/>
	<polygon class="st0" points="2.63,37.54 2.63,39.71 4.51,40.8 6.39,39.71 6.39,37.54 4.51,36.46 	"/>
	<polyline class="st0" points="0.4,40.8 2.28,39.71 2.28,37.54 0.4,36.46 	"/>
	<polygon class="st0" points="6.78,37.54 6.78,39.71 8.66,40.8 10.54,39.71 10.54,37.54 8.66,36.46 	"/>
	<polygon class="st0" points="8.85,33.95 8.85,36.12 10.73,37.21 12.61,36.12 12.61,33.95 10.73,32.87 	"/>
	<polygon class="st0" points="4.74,33.95 4.74,36.12 6.62,37.21 8.5,36.12 8.5,33.95 6.62,32.87 	"/>
	<polygon class="st0" points="12.98,33.94 12.98,36.11 14.86,37.19 16.73,36.11 16.73,33.94 14.86,32.85 	"/>
	<polygon class="st0" points="15.04,37.54 15.04,39.71 16.92,40.8 18.8,39.71 18.8,37.54 16.92,36.46 	"/>
	<polygon class="st0" points="10.93,37.54 10.93,39.71 12.81,40.8 14.69,39.71 14.69,37.54 12.81,36.46 	"/>
	<polygon class="st0" points="19.2,37.54 19.2,39.71 21.08,40.8 22.96,39.71 22.96,37.54 21.08,36.46 	"/>
	<polygon class="st0" points="21.26,33.95 21.26,36.12 23.14,37.21 25.02,36.12 25.02,33.95 23.14,32.87 	"/>
	<polygon class="st0" points="17.15,33.95 17.15,36.12 19.03,37.21 20.91,36.12 20.91,33.95 19.03,32.87 	"/>
	<polygon class="st0" points="25.39,33.94 25.39,36.11 27.27,37.19 29.15,36.11 29.15,33.94 27.27,32.85 	"/>
	<polygon class="st0" points="27.46,37.54 27.46,39.71 29.34,40.8 31.22,39.71 31.22,37.54 29.34,36.46 	"/>
	<polygon class="st0" points="23.35,37.54 23.35,39.71 25.23,40.8 27.11,39.71 27.11,37.54 25.23,36.46 	"/>
	<polygon class="st0" points="31.61,37.54 31.61,39.71 33.49,40.8 35.37,39.71 35.37,37.54 33.49,36.46 	"/>
	<polygon class="st0" points="33.68,33.95 33.68,36.12 35.56,37.21 37.44,36.12 37.44,33.95 35.56,32.87 	"/>
	<polygon class="st0" points="29.57,33.95 29.57,36.12 31.45,37.21 33.33,36.12 33.33,33.95 31.45,32.87 	"/>
	<polygon class="st0" points="37.8,33.94 37.8,36.11 39.68,37.19 41.56,36.11 41.56,33.94 39.68,32.85 	"/>
	<polygon class="st0" points="39.87,37.54 39.87,39.71 41.75,40.8 43.63,39.71 43.63,37.54 41.75,36.46 	"/>
	<polygon class="st0" points="35.76,37.54 35.76,39.71 37.64,40.8 39.52,39.71 39.52,37.54 37.64,36.46 	"/>
	<polygon class="st0" points="44.02,37.54 44.02,39.71 45.9,40.8 47.78,39.71 47.78,37.54 45.9,36.46 	"/>
	<polygon class="st0" points="46.09,33.95 46.09,36.12 47.97,37.21 49.85,36.12 49.85,33.95 47.97,32.87 	"/>
	<polygon class="st0" points="41.98,33.95 41.98,36.12 43.86,37.21 45.74,36.12 45.74,33.95 43.86,32.87 	"/>
	<polygon class="st0" points="46.09,19.45 46.09,21.62 47.97,22.71 49.85,21.62 49.85,19.45 47.97,18.37 	"/>
	<polygon class="st0" points="41.98,19.45 41.98,21.62 43.86,22.71 45.74,21.62 45.74,19.45 43.86,18.37 	"/>
	<polygon class="st0" points="48.09,15.77 48.09,17.94 49.97,19.02 51.85,17.94 51.85,15.77 49.97,14.68 	"/>
	<polygon class="st0" points="48.09,8.57 48.09,10.74 49.97,11.83 51.85,10.74 51.85,8.57 49.97,7.49 	"/>
	<polygon class="st0" points="52.24,15.77 52.24,17.94 54.12,19.02 56,17.94 56,15.77 54.12,14.68 	"/>
	<polygon class="st0" points="52.24,8.57 52.24,10.74 54.12,11.83 56,10.74 56,8.57 54.12,7.49 	"/>
	<polygon class="st0" points="54.31,12.18 54.31,14.35 56.19,15.43 58.07,14.35 58.07,12.18 56.19,11.09 	"/>
	<polygon class="st0" points="50.2,12.18 50.2,14.35 52.08,15.43 53.96,14.35 53.96,12.18 52.08,11.09 	"/>
	<polygon class="st0" points="58.44,12.16 58.44,14.33 60.32,15.42 62.2,14.33 62.2,12.16 60.32,11.08 	"/>
	<polygon class="st0" points="60.51,15.77 60.51,17.94 62.39,19.02 64.26,17.94 64.26,15.77 62.39,14.68 	"/>
	<polygon class="st0" points="56.4,15.77 56.4,17.94 58.28,19.02 60.15,17.94 60.15,15.77 58.28,14.68 	"/>
	<polygon class="st0" points="60.51,8.57 60.51,10.74 62.39,11.83 64.26,10.74 64.26,8.57 62.39,7.49 	"/>
	<polygon class="st0" points="56.4,8.57 56.4,10.74 58.28,11.83 60.15,10.74 60.15,8.57 58.28,7.49 	"/>
	<polygon class="st0" points="64.66,15.77 64.66,17.94 66.54,19.02 68.42,17.94 68.42,15.77 66.54,14.68 	"/>
	<polygon class="st0" points="64.66,8.57 64.66,10.74 66.54,11.83 68.42,10.74 68.42,8.57 66.54,7.49 	"/>
	<polygon class="st0" points="66.73,12.18 66.73,14.35 68.61,15.43 70.49,14.35 70.49,12.18 68.61,11.09 	"/>
	<polygon class="st0" points="62.62,12.18 62.62,14.35 64.5,15.43 66.38,14.35 66.38,12.18 64.5,11.09 	"/>
	<polygon class="st0" points="70.85,12.16 70.85,14.33 72.73,15.42 74.61,14.33 74.61,12.16 72.73,11.08 	"/>
	<polygon class="st0" points="72.92,15.77 72.92,17.94 74.8,19.02 76.68,17.94 76.68,15.77 74.8,14.68 	"/>
	<polygon class="st0" points="68.81,15.77 68.81,17.94 70.69,19.02 72.57,17.94 72.57,15.77 70.69,14.68 	"/>
	<polygon class="st0" points="72.92,8.57 72.92,10.74 74.8,11.83 76.68,10.74 76.68,8.57 74.8,7.49 	"/>
	<polygon class="st0" points="68.81,8.57 68.81,10.74 70.69,11.83 72.57,10.74 72.57,8.57 70.69,7.49 	"/>
	<polygon class="st0" points="77.07,15.77 77.07,17.94 78.95,19.02 80.83,17.94 80.83,15.77 78.95,14.68 	"/>
	<polygon class="st0" points="77.07,8.57 77.07,10.74 78.95,11.83 80.83,10.74 80.83,8.57 78.95,7.49 	"/>
	<polygon class="st0" points="79.14,12.18 79.14,14.35 81.02,15.43 82.9,14.35 82.9,12.18 81.02,11.09 	"/>
	<polygon class="st0" points="75.03,12.18 75.03,14.35 76.91,15.43 78.79,14.35 78.79,12.18 76.91,11.09 	"/>
	<polygon class="st0" points="83.27,12.16 83.27,14.33 85.15,15.42 87.02,14.33 87.02,12.16 85.15,11.08 	"/>
	<polygon class="st0" points="85.33,15.77 85.33,17.94 87.21,19.02 89.09,17.94 89.09,15.77 87.21,14.68 	"/>
	<polygon class="st0" points="81.22,15.77 81.22,17.94 83.1,19.02 84.98,17.94 84.98,15.77 83.1,14.68 	"/>
	<polygon class="st0" points="85.33,8.57 85.33,10.74 87.21,11.83 89.09,10.74 89.09,8.57 87.21,7.49 	"/>
	<polygon class="st0" points="81.22,8.57 81.22,10.74 83.1,11.83 84.98,10.74 84.98,8.57 83.1,7.49 	"/>
	<polygon class="st0" points="89.49,15.77 89.49,17.94 91.37,19.02 93.25,17.94 93.25,15.77 91.37,14.68 	"/>
	<polygon class="st0" points="89.49,8.57 89.49,10.74 91.37,11.83 93.25,10.74 93.25,8.57 91.37,7.49 	"/>
	<polygon class="st0" points="91.55,12.18 91.55,14.35 93.43,15.43 95.31,14.35 95.31,12.18 93.43,11.09 	"/>
	<polygon class="st0" points="87.44,12.18 87.44,14.35 89.32,15.43 91.2,14.35 91.2,12.18 89.32,11.09 	"/>
	<polygon class="st0" points="48.09,30.24 48.09,32.41 49.97,33.49 51.85,32.41 51.85,30.24 49.97,29.15 	"/>
	<polygon class="st0" points="48.09,23.04 48.09,25.21 49.97,26.3 51.85,25.21 51.85,23.04 49.97,21.96 	"/>
	<polygon class="st0" points="52.24,30.24 52.24,32.41 54.12,33.49 56,32.41 56,30.24 54.12,29.15 	"/>
	<polygon class="st0" points="52.24,23.04 52.24,25.21 54.12,26.3 56,25.21 56,23.04 54.12,21.96 	"/>
	<polygon class="st0" points="54.31,26.65 54.31,28.82 56.19,29.9 58.07,28.82 58.07,26.65 56.19,25.56 	"/>
	<polygon class="st0" points="50.2,26.65 50.2,28.82 52.08,29.9 53.96,28.82 53.96,26.65 52.08,25.56 	"/>
	<polygon class="st0" points="54.31,19.45 54.31,21.62 56.19,22.71 58.07,21.62 58.07,19.45 56.19,18.37 	"/>
	<polygon class="st0" points="50.2,19.45 50.2,21.62 52.08,22.71 53.96,21.62 53.96,19.45 52.08,18.37 	"/>
	<polygon class="st0" points="58.44,26.63 58.44,28.8 60.32,29.89 62.2,28.8 62.2,26.63 60.32,25.55 	"/>
	<polygon class="st0" points="60.51,30.24 60.51,32.41 62.39,33.49 64.26,32.41 64.26,30.24 62.39,29.15 	"/>
	<polygon class="st0" points="56.4,30.24 56.4,32.41 58.28,33.49 60.15,32.41 60.15,30.24 58.28,29.15 	"/>
	<polygon class="st0" points="58.44,19.44 58.44,21.61 60.32,22.69 62.2,21.61 62.2,19.44 60.32,18.35 	"/>
	<polygon class="st0" points="60.51,23.04 60.51,25.21 62.39,26.3 64.26,25.21 64.26,23.04 62.39,21.96 	"/>
	<polygon class="st0" points="56.4,23.04 56.4,25.21 58.28,26.3 60.15,25.21 60.15,23.04 58.28,21.96 	"/>
	<polygon class="st0" points="64.66,30.24 64.66,32.41 66.54,33.49 68.42,32.41 68.42,30.24 66.54,29.15 	"/>
	<polygon class="st0" points="64.66,23.04 64.66,25.21 66.54,26.3 68.42,25.21 68.42,23.04 66.54,21.96 	"/>
	<polygon class="st0" points="66.73,26.65 66.73,28.82 68.61,29.9 70.49,28.82 70.49,26.65 68.61,25.56 	"/>
	<polygon class="st0" points="62.62,26.65 62.62,28.82 64.5,29.9 66.38,28.82 66.38,26.65 64.5,25.56 	"/>
	<polygon class="st0" points="66.73,19.45 66.73,21.62 68.61,22.71 70.49,21.62 70.49,19.45 68.61,18.37 	"/>
	<polygon class="st0" points="62.62,19.45 62.62,21.62 64.5,22.71 66.38,21.62 66.38,19.45 64.5,18.37 	"/>
	<polygon class="st0" points="70.85,26.63 70.85,28.8 72.73,29.89 74.61,28.8 74.61,26.63 72.73,25.55 	"/>
	<polygon class="st0" points="72.92,30.24 72.92,32.41 74.8,33.49 76.68,32.41 76.68,30.24 74.8,29.15 	"/>
	<polygon class="st0" points="68.81,30.24 68.81,32.41 70.69,33.49 72.57,32.41 72.57,30.24 70.69,29.15 	"/>
	<polygon class="st0" points="70.85,19.44 70.85,21.61 72.73,22.69 74.61,21.61 74.61,19.44 72.73,18.35 	"/>
	<polygon class="st0" points="72.92,23.04 72.92,25.21 74.8,26.3 76.68,25.21 76.68,23.04 74.8,21.96 	"/>
	<polygon class="st0" points="68.81,23.04 68.81,25.21 70.69,26.3 72.57,25.21 72.57,23.04 70.69,21.96 	"/>
	<polygon class="st0" points="77.07,30.24 77.07,32.41 78.95,33.49 80.83,32.41 80.83,30.24 78.95,29.15 	"/>
	<polygon class="st0" points="77.07,23.04 77.07,25.21 78.95,26.3 80.83,25.21 80.83,23.04 78.95,21.96 	"/>
	<polygon class="st0" points="79.14,26.65 79.14,28.82 81.02,29.9 82.9,28.82 82.9,26.65 81.02,25.56 	"/>
	<polygon class="st0" points="75.03,26.65 75.03,28.82 76.91,29.9 78.79,28.82 78.79,26.65 76.91,25.56 	"/>
	<polygon class="st0" points="79.14,19.45 79.14,21.62 81.02,22.71 82.9,21.62 82.9,19.45 81.02,18.37 	"/>
	<polygon class="st0" points="75.03,19.45 75.03,21.62 76.91,22.71 78.79,21.62 78.79,19.45 76.91,18.37 	"/>
	<polygon class="st0" points="83.27,26.63 83.27,28.8 85.15,29.89 87.02,28.8 87.02,26.63 85.15,25.55 	"/>
	<polygon class="st0" points="85.33,30.24 85.33,32.41 87.21,33.49 89.09,32.41 89.09,30.24 87.21,29.15 	"/>
	<polygon class="st0" points="81.22,30.24 81.22,32.41 83.1,33.49 84.98,32.41 84.98,30.24 83.1,29.15 	"/>
	<polygon class="st0" points="83.27,19.44 83.27,21.61 85.15,22.69 87.02,21.61 87.02,19.44 85.15,18.35 	"/>
	<polygon class="st0" points="85.33,23.04 85.33,25.21 87.21,26.3 89.09,25.21 89.09,23.04 87.21,21.96 	"/>
	<polygon class="st0" points="81.22,23.04 81.22,25.21 83.1,26.3 84.98,25.21 84.98,23.04 83.1,21.96 	"/>
	<polygon class="st0" points="89.49,30.24 89.49,32.41 91.37,33.49 93.25,32.41 93.25,30.24 91.37,29.15 	"/>
	<polygon class="st0" points="89.49,23.04 89.49,25.21 91.37,26.3 93.25,25.21 93.25,23.04 91.37,21.96 	"/>
	<polygon class="st0" points="91.55,26.65 91.55,28.82 93.43,29.9 95.31,28.82 95.31,26.65 93.43,25.56 	"/>
	<polygon class="st0" points="87.44,26.65 87.44,28.82 89.32,29.9 91.2,28.82 91.2,26.65 89.32,25.56 	"/>
	<polygon class="st0" points="48.09,37.54 48.09,39.71 49.97,40.8 51.85,39.71 51.85,37.54 49.97,36.46 	"/>
	<polygon class="st0" points="52.24,37.54 52.24,39.71 54.12,40.8 56,39.71 56,37.54 54.12,36.46 	"/>
	<polygon class="st0" points="54.31,33.95 54.31,36.12 56.19,37.21 58.07,36.12 58.07,33.95 56.19,32.87 	"/>
	<polygon class="st0" points="50.2,33.95 50.2,36.12 52.08,37.21 53.96,36.12 53.96,33.95 52.08,32.87 	"/>
	<polygon class="st0" points="58.44,33.94 58.44,36.11 60.32,37.19 62.2,36.11 62.2,33.94 60.32,32.85 	"/>
	<polygon class="st0" points="60.51,37.54 60.51,39.71 62.39,40.8 64.26,39.71 64.26,37.54 62.39,36.46 	"/>
	<polygon class="st0" points="56.4,37.54 56.4,39.71 58.28,40.8 60.15,39.71 60.15,37.54 58.28,36.46 	"/>
	<polygon class="st0" points="64.66,37.54 64.66,39.71 66.54,40.8 68.42,39.71 68.42,37.54 66.54,36.46 	"/>
	<polygon class="st0" points="66.73,33.95 66.73,36.12 68.61,37.21 70.49,36.12 70.49,33.95 68.61,32.87 	"/>
	<polygon class="st0" points="62.62,33.95 62.62,36.12 64.5,37.21 66.38,36.12 66.38,33.95 64.5,32.87 	"/>
	<polygon class="st0" points="70.85,33.94 70.85,36.11 72.73,37.19 74.61,36.11 74.61,33.94 72.73,32.85 	"/>
	<polygon class="st0" points="72.92,37.54 72.92,39.71 74.8,40.8 76.68,39.71 76.68,37.54 74.8,36.46 	"/>
	<polygon class="st0" points="68.81,37.54 68.81,39.71 70.69,40.8 72.57,39.71 72.57,37.54 70.69,36.46 	"/>
	<polygon class="st0" points="77.07,37.54 77.07,39.71 78.95,40.8 80.83,39.71 80.83,37.54 78.95,36.46 	"/>
	<polygon class="st0" points="79.14,33.95 79.14,36.12 81.02,37.21 82.9,36.12 82.9,33.95 81.02,32.87 	"/>
	<polygon class="st0" points="75.03,33.95 75.03,36.12 76.91,37.21 78.79,36.12 78.79,33.95 76.91,32.87 	"/>
	<polygon class="st0" points="83.27,33.94 83.27,36.11 85.15,37.19 87.02,36.11 87.02,33.94 85.15,32.85 	"/>
	<polygon class="st0" points="85.33,37.54 85.33,39.71 87.21,40.8 89.09,39.71 89.09,37.54 87.21,36.46 	"/>
	<polygon class="st0" points="81.22,37.54 81.22,39.71 83.1,40.8 84.98,39.71 84.98,37.54 83.1,36.46 	"/>
	<polygon class="st0" points="89.49,37.54 89.49,39.71 91.37,40.8 93.25,39.71 93.25,37.54 91.37,36.46 	"/>
	<polygon class="st0" points="91.55,33.95 91.55,36.12 93.43,37.21 95.31,36.12 95.31,33.95 93.43,32.87 	"/>
	<polygon class="st0" points="87.44,33.95 87.44,36.12 89.32,37.21 91.2,36.12 91.2,33.95 89.32,32.87 	"/>
	<polygon class="st0" points="91.55,19.45 91.55,21.62 93.43,22.71 95.31,21.62 95.31,19.45 93.43,18.37 	"/>
	<polygon class="st0" points="87.44,19.45 87.44,21.62 89.32,22.71 91.2,21.62 91.2,19.45 89.32,18.37 	"/>
	<polygon class="st0" points="93.64,15.77 93.64,17.94 95.52,19.02 97.4,17.94 97.4,15.77 95.52,14.68 	"/>
	<polygon class="st0" points="93.64,8.57 93.64,10.74 95.52,11.83 97.4,10.74 97.4,8.57 95.52,7.49 	"/>
	<polygon class="st0" points="95.71,12.18 95.71,14.35 97.59,15.43 99.47,14.35 99.47,12.18 97.59,11.09 	"/>
	<polygon class="st0" points="99.83,12.16 99.83,14.33 101.71,15.42 103.59,14.33 103.59,12.16 101.71,11.08 	"/>
	<polygon class="st0" points="101.9,15.77 101.9,17.94 103.78,19.02 105.66,17.94 105.66,15.77 103.78,14.68 	"/>
	<polygon class="st0" points="97.79,15.77 97.79,17.94 99.67,19.02 101.55,17.94 101.55,15.77 99.67,14.68 	"/>
	<polygon class="st0" points="101.9,8.57 101.9,10.74 103.78,11.83 105.66,10.74 105.66,8.57 103.78,7.49 	"/>
	<polygon class="st0" points="97.79,8.57 97.79,10.74 99.67,11.83 101.55,10.74 101.55,8.57 99.67,7.49 	"/>
	<polygon class="st0" points="106.05,15.77 106.05,17.94 107.93,19.02 109.81,17.94 109.81,15.77 107.93,14.68 	"/>
	<polygon class="st0" points="106.05,8.57 106.05,10.74 107.93,11.83 109.81,10.74 109.81,8.57 107.93,7.49 	"/>
	<polyline class="st0" points="110,11.09 108.12,12.18 108.12,14.35 110,15.43 	"/>
	<polygon class="st0" points="104.01,12.18 104.01,14.35 105.89,15.43 107.77,14.35 107.77,12.18 105.89,11.09 	"/>
	<polygon class="st0" points="93.64,30.24 93.64,32.41 95.52,33.49 97.4,32.41 97.4,30.24 95.52,29.15 	"/>
	<polygon class="st0" points="93.64,23.04 93.64,25.21 95.52,26.3 97.4,25.21 97.4,23.04 95.52,21.96 	"/>
	<polygon class="st0" points="95.71,26.65 95.71,28.82 97.59,29.9 99.47,28.82 99.47,26.65 97.59,25.56 	"/>
	<polygon class="st0" points="95.71,19.45 95.71,21.62 97.59,22.71 99.47,21.62 99.47,19.45 97.59,18.37 	"/>
	<polygon class="st0" points="99.83,26.63 99.83,28.8 101.71,29.89 103.59,28.8 103.59,26.63 101.71,25.55 	"/>
	<polygon class="st0" points="101.9,30.24 101.9,32.41 103.78,33.49 105.66,32.41 105.66,30.24 103.78,29.15 	"/>
	<polygon class="st0" points="97.79,30.24 97.79,32.41 99.67,33.49 101.55,32.41 101.55,30.24 99.67,29.15 	"/>
	<polygon class="st0" points="99.83,19.44 99.83,21.61 101.71,22.69 103.59,21.61 103.59,19.44 101.71,18.35 	"/>
	<polygon class="st0" points="101.9,23.04 101.9,25.21 103.78,26.3 105.66,25.21 105.66,23.04 103.78,21.96 	"/>
	<polygon class="st0" points="97.79,23.04 97.79,25.21 99.67,26.3 101.55,25.21 101.55,23.04 99.67,21.96 	"/>
	<polygon class="st0" points="106.05,30.24 106.05,32.41 107.93,33.49 109.81,32.41 109.81,30.24 107.93,29.15 	"/>
	<polygon class="st0" points="106.05,23.04 106.05,25.21 107.93,26.3 109.81,25.21 109.81,23.04 107.93,21.96 	"/>
	<polyline class="st0" points="110,25.56 108.12,26.65 108.12,28.82 110,29.9 	"/>
	<polygon class="st0" points="104.01,26.65 104.01,28.82 105.89,29.9 107.77,28.82 107.77,26.65 105.89,25.56 	"/>
	<polygon class="st0" points="93.64,37.54 93.64,39.71 95.52,40.8 97.4,39.71 97.4,37.54 95.52,36.46 	"/>
	<polygon class="st0" points="95.71,33.95 95.71,36.12 97.59,37.21 99.47,36.12 99.47,33.95 97.59,32.87 	"/>
	<polygon class="st0" points="99.83,33.94 99.83,36.11 101.71,37.19 103.59,36.11 103.59,33.94 101.71,32.85 	"/>
	<polygon class="st0" points="101.9,37.54 101.9,39.71 103.78,40.8 105.66,39.71 105.66,37.54 103.78,36.46 	"/>
	<polygon class="st0" points="97.79,37.54 97.79,39.71 99.67,40.8 101.55,39.71 101.55,37.54 99.67,36.46 	"/>
	<polygon class="st0" points="106.05,37.54 106.05,39.71 107.93,40.8 109.81,39.71 109.81,37.54 107.93,36.46 	"/>
	<polyline class="st0" points="110,32.87 108.12,33.95 108.12,36.12 110,37.21 	"/>
	<polygon class="st0" points="104.01,33.95 104.01,36.12 105.89,37.21 107.77,36.12 107.77,33.95 105.89,32.87 	"/>
	<polyline class="st0" points="110,18.37 108.12,19.45 108.12,21.62 110,22.71 	"/>
	<polygon class="st0" points="104.01,19.45 104.01,21.62 105.89,22.71 107.77,21.62 107.77,19.45 105.89,18.37 	"/>
</g>
<rect x="52.2" y="-51.79" transform="matrix(6.123234e-17 -1 1 6.123234e-17 52.1854 58.2142)" class="st1" width="6" height="109.6"/>
<rect x="52.2" y="-9.44" transform="matrix(6.123234e-17 -1 1 6.123234e-17 9.8427 100.5569)" class="st1" width="6" height="109.6"/>
</svg>
